<svg xmlns="http://www.w3.org/2000/svg" viewBox="0 0 256 256">
  <defs>
    <linearGradient id="g" x1="0" y1="0" x2="1" y2="1">
      <stop offset="0" stop-color="#0d6efd"/>
      <stop offset="1" stop-color="#20c997"/>
    </linearGradient>
  </defs>
  <rect width="256" height="256" rx="48" fill="url(#g)"/>
  <g fill="white">
    <path d="M64 96h128a8 8 0 0 1 8 8v80a24 24 0 0 1-24 24H80a24 24 0 0 1-24-24v-80a8 8 0 0 1 8-8z" opacity=".9"/>
    <circle cx="128" cy="76" r="28"/>
    <path d="M48 72h40a8 8 0 0 1 0 16H56v80a8 8 0 0 1-16 0V80a8 8 0 0 1 8-8zm160 0a8 8 0 0 1 8 8v88a8 8 0 0 1-16 0V88h-32a8 8 0 0 1 0-16h40z" opacity=".85"/>
  </g>
</svg>